
<svg version="1.0" xmlns="http://www.w3.org/2000/svg"
 width="100.000000pt" height="100.000000pt" viewBox="0 0 100.000000 100.000000"
 preserveAspectRatio="xMidYMid meet"

 >

<g transform="translate(0.000000,100.000000) scale(0.100000,-0.100000)"
fill="#000000" stroke="none">
<path d="M315 849 c-44 -6 -76 -16 -88 -27 -10 -10 -31 -52 -47 -93 -19 -48
-34 -72 -42 -70 -7 3 -34 7 -61 9 -45 4 -47 3 -47 -22 0 -31 32 -66 61 -66 20
0 21 -1 5 -25 -14 -21 -16 -53 -14 -217 l3 -193 48 -3 c58 -4 73 6 81 57 l6
39 280 0 280 0 6 -39 c8 -51 23 -61 81 -57 l48 3 3 193 c2 164 0 196 -14 217
-16 24 -15 25 5 25 29 0 61 35 61 66 0 25 -2 26 -47 22 -27 -2 -54 -6 -61 -9
-8 -2 -23 22 -42 70 -16 41 -37 83 -47 92 -34 34 -288 49 -458 28z m390 -67
c27 -8 34 -19 67 -103 l37 -94 -47 -8 c-62 -11 -464 -11 -524 -1 l-47 9 35 90
c19 50 39 94 43 98 24 24 356 30 436 9z m-397 -297 c2 -2 -4 -17 -13 -34 -13
-27 -21 -31 -56 -31 -52 0 -74 13 -87 50 l-11 30 82 -6 c45 -4 83 -8 85 -9z
m540 -15 c-13 -37 -35 -50 -87 -50 -35 0 -43 4 -56 30 -8 16 -15 31 -15 34 0
3 28 7 63 9 34 2 72 4 84 5 20 2 21 0 11 -28z m-198 -109 c0 -5 -4 -21 -10
-35 l-10 -26 -129 0 c-119 0 -131 2 -141 19 -26 49 -21 51 140 51 86 0 150 -4
150 -9z"/>
</g>
</svg>
